<svg width="35" height="35" viewBox="0 0 35 35" fill="none" xmlns="http://www.w3.org/2000/svg">
<path d="M17.5 32.5C25.7843 32.5 32.5 25.7843 32.5 17.5C32.5 9.21573 25.7843 2.5 17.5 2.5C9.21573 2.5 2.5 9.21573 2.5 17.5C2.5 25.7843 9.21573 32.5 17.5 32.5ZM34.5 17.5C34.5 26.8888 26.8888 34.5 17.5 34.5C8.11116 34.5 0.5 26.8888 0.5 17.5C0.5 8.11116 8.11116 0.5 17.5 0.5C26.8888 0.5 34.5 8.11116 34.5 17.5ZM24.5 17C24.5 21.173 21.3361 24.5 17.5 24.5C13.6639 24.5 10.5 21.173 10.5 17C10.5 12.827 13.6639 9.5 17.5 9.5C21.3361 9.5 24.5 12.827 24.5 17Z" fill="#6B6B6B" stroke="#6B6B6B"/>
</svg>