<svg width="24" height="24" viewBox="0 0 24 24" fill="none" xmlns="http://www.w3.org/2000/svg">
<path opacity="0.2" d="M18.75 5.25V18.75H5.25V5.25H18.75Z" fill="currentColor"/>
<path d="M19.5 5.25V18.75C19.5 18.9489 19.421 19.1397 19.2803 19.2803C19.1397 19.421 18.9489 19.5 18.75 19.5C18.5511 19.5 18.3603 19.421 18.2197 19.2803C18.079 19.1397 18 18.9489 18 18.75V12.75H6V18.75C6 18.9489 5.92098 19.1397 5.78033 19.2803C5.63968 19.421 5.44891 19.5 5.25 19.5C5.05109 19.5 4.86032 19.421 4.71967 19.2803C4.57902 19.1397 4.5 18.9489 4.5 18.75V5.25C4.5 5.05109 4.57902 4.86032 4.71967 4.71967C4.86032 4.57902 5.05109 4.5 5.25 4.5C5.44891 4.5 5.63968 4.57902 5.78033 4.71967C5.92098 4.86032 6 5.05109 6 5.25V11.25H18V5.25C18 5.05109 18.079 4.86032 18.2197 4.71967C18.3603 4.57902 18.5511 4.5 18.75 4.5C18.9489 4.5 19.1397 4.57902 19.2803 4.71967C19.421 4.86032 19.5 5.05109 19.5 5.25Z" fill="currentColor"/>
</svg>