<svg width="18" height="19" viewBox="0 0 18 19" fill="none" xmlns="http://www.w3.org/2000/svg">
<path opacity="0.2" d="M5.625 3.3125V10.0625L2.25 6.6875L5.625 3.3125Z" fill="currentColor"/>
<path d="M11.8125 6.12499H6.1875V3.31249C6.18759 3.20117 6.15464 3.09233 6.09284 2.99975C6.03104 2.90716 5.94316 2.835 5.84032 2.79239C5.73748 2.74977 5.62431 2.73863 5.51514 2.76038C5.40597 2.78212 5.3057 2.83576 5.22703 2.91452L1.85203 6.28952C1.79973 6.34176 1.75824 6.4038 1.72994 6.47208C1.70163 6.54037 1.68706 6.61356 1.68706 6.68749C1.68706 6.76141 1.70163 6.8346 1.72994 6.90289C1.75824 6.97118 1.79973 7.03321 1.85203 7.08545L5.22703 10.4605C5.3057 10.5392 5.40597 10.5929 5.51514 10.6146C5.62431 10.6363 5.73748 10.6252 5.84032 10.5826C5.94316 10.54 6.03104 10.4678 6.09284 10.3752C6.15464 10.2826 6.18759 10.1738 6.1875 10.0625V7.24999H11.8125C12.7076 7.24999 13.5661 7.60556 14.199 8.2385C14.8319 8.87144 15.1875 9.72988 15.1875 10.625C15.1875 11.5201 14.8319 12.3785 14.199 13.0115C13.5661 13.6444 12.7076 14 11.8125 14H5.625C5.47582 14 5.33274 14.0592 5.22725 14.1647C5.12176 14.2702 5.0625 14.4133 5.0625 14.5625C5.0625 14.7117 5.12176 14.8547 5.22725 14.9602C5.33274 15.0657 5.47582 15.125 5.625 15.125H11.8125C13.006 15.125 14.1506 14.6509 14.9945 13.807C15.8384 12.9631 16.3125 11.8185 16.3125 10.625C16.3125 9.43151 15.8384 8.28692 14.9945 7.443C14.1506 6.59909 13.006 6.12499 11.8125 6.12499ZM5.0625 8.70475L3.04523 6.68749L5.0625 4.67022V8.70475Z" fill="currentColor"/>
</svg>