<svg width="36" height="36" viewBox="0 0 36 36" fill="none" xmlns="http://www.w3.org/2000/svg">
<path opacity="0.2" d="M6.43125 21.7341C7.21875 23.4139 8.325 24.9038 9.75 26.2038V31.125C9.75 31.4437 9.8577 31.7109 10.0731 31.9265C10.2885 32.1422 10.5556 32.25 10.8745 32.25H20.6244C20.9433 32.25 21.2106 32.1422 21.4263 31.9265C21.6421 31.7109 21.7499 31.4437 21.7499 31.125V29.25H25.0384C25.7841 29.25 26.4224 28.9845 26.9534 28.4534C27.4844 27.9224 27.7499 27.2841 27.7499 26.5384V21.75H30.7211C31.173 21.75 31.5345 21.5754 31.8057 21.2264C32.0768 20.8774 32.1562 20.489 32.0439 20.0613L30.2913 13.1394C29.6047 10.3625 28.1129 8.10342 25.8158 6.36207C23.5187 4.62072 20.9134 3.75004 18 3.75004C14.4583 3.75004 11.4479 4.98861 8.96876 7.46576C6.48959 9.94289 5.25 12.9508 5.25 16.4896C5.25 18.3061 5.64375 20.0543 6.43125 21.7341Z" fill="currentColor"/>
<path d="M18.3836 22.6384C19.9509 22.6384 21.2918 22.1336 22.4062 21.124C23.5206 20.1144 24.0778 18.8865 24.0778 17.4404C24.0778 16.1789 23.6769 15.1072 22.8749 14.2255C22.073 13.3438 21.0894 12.9029 19.924 12.9029C18.9029 12.9029 18.0317 13.2298 17.3106 13.8837C16.5894 14.5375 16.2288 15.3439 16.2288 16.3029C16.2288 16.717 16.3029 17.1288 16.451 17.5385C16.599 17.9481 16.849 18.3086 17.201 18.6202C17.5048 18.8933 17.8086 19.0082 18.1125 18.9649C18.4163 18.9216 18.6644 18.7961 18.8567 18.5885C19.049 18.3808 19.1615 18.1336 19.1942 17.8471C19.2269 17.5606 19.1115 17.2933 18.848 17.0452C18.7692 16.9664 18.6879 16.8606 18.6043 16.7279C18.5206 16.5952 18.4788 16.4596 18.4788 16.3212C18.4788 16.0173 18.6081 15.7529 18.8668 15.5279C19.1254 15.3029 19.4778 15.1904 19.924 15.1904C20.4625 15.1904 20.9182 15.4062 21.2913 15.838C21.6644 16.2697 21.851 16.8163 21.851 17.4779C21.851 18.2817 21.525 18.9716 20.8731 19.5476C20.2211 20.1236 19.4038 20.4116 18.4211 20.4116C17.2365 20.4116 16.2259 19.9366 15.3894 18.9866C14.5528 18.0366 14.1346 16.8596 14.1346 15.4558C14.1346 14.921 14.2101 14.4003 14.361 13.8936C14.512 13.387 14.7384 12.9144 15.0403 12.476C15.2019 12.1971 15.2875 11.9019 15.2971 11.5904C15.3067 11.2789 15.1952 11.0068 14.9625 10.7741C14.7298 10.5414 14.4538 10.4313 14.1346 10.4438C13.8154 10.4563 13.5673 10.5943 13.3904 10.8577C12.8904 11.5096 12.5082 12.2216 12.2438 12.9936C11.9793 13.7657 11.8471 14.5739 11.8471 15.4183C11.8471 17.4163 12.4798 19.1192 13.7452 20.5269C15.0106 21.9346 16.5567 22.6384 18.3836 22.6384ZM9.75 26.2038C8.325 24.9038 7.21875 23.4139 6.43125 21.7341C5.64375 20.0543 5.25 18.3061 5.25 16.4896C5.25 12.9508 6.48959 9.94289 8.96876 7.46576C11.4479 4.98861 14.4583 3.75004 18 3.75004C20.9134 3.75004 23.5187 4.62072 25.8158 6.36207C28.1129 8.10342 29.6047 10.3625 30.2913 13.1394L32.0439 20.0613C32.1562 20.489 32.0768 20.8774 31.8057 21.2264C31.5345 21.5754 31.173 21.75 30.7211 21.75H27.7499V26.5384C27.7499 27.2841 27.4844 27.9224 26.9534 28.4534C26.4224 28.9845 25.784 29.25 25.0384 29.25H21.7499V31.125C21.7499 31.4437 21.6421 31.7109 21.4263 31.9265C21.2106 32.1422 20.9433 32.25 20.6244 32.25C20.3055 32.25 20.0384 32.1422 19.823 31.9265C19.6076 31.7109 19.5 31.4437 19.5 31.125V28.3629C19.5 27.9716 19.6299 27.6466 19.8897 27.388C20.1496 27.1293 20.4716 27 20.8557 27H25.0384C25.173 27 25.2836 26.9567 25.3701 26.8702C25.4567 26.7836 25.5 26.673 25.5 26.5384V20.8558C25.5 20.4716 25.6299 20.1496 25.8897 19.8898C26.1496 19.6299 26.4716 19.5 26.8557 19.5H29.55L28.125 13.6875C27.55 11.4029 26.3202 9.55048 24.4355 8.1303C22.5509 6.7101 20.4057 6 18 6C15.1 6 12.625 7.0139 10.575 9.0417C8.52496 11.0695 7.49996 13.5354 7.49996 16.4394C7.49996 17.937 7.80621 19.3596 8.41871 20.7074C9.03121 22.0552 9.89996 23.2532 11.025 24.3015L12 25.2V31.125C12 31.4437 11.8921 31.7109 11.6764 31.9265C11.4607 32.1422 11.1934 32.25 10.8745 32.25C10.5556 32.25 10.2885 32.1422 10.0731 31.9265C9.8577 31.7109 9.75 31.4437 9.75 31.125V26.2038Z" fill="currentColor"/>
</svg>