<svg width="17" height="16" viewBox="0 0 17 16" fill="none" xmlns="http://www.w3.org/2000/svg">
<path d="M7.5 13.5C7.5 13.6326 7.44732 13.7598 7.35355 13.8536C7.25979 13.9473 7.13261 14 7 14H3.5C3.23478 14 2.98043 13.8946 2.79289 13.7071C2.60536 13.5196 2.5 13.2652 2.5 13V3C2.5 2.73478 2.60536 2.48043 2.79289 2.29289C2.98043 2.10536 3.23478 2 3.5 2H7C7.13261 2 7.25979 2.05268 7.35355 2.14645C7.44732 2.24021 7.5 2.36739 7.5 2.5C7.5 2.63261 7.44732 2.75979 7.35355 2.85355C7.25979 2.94732 7.13261 3 7 3H3.5V13H7C7.13261 13 7.25979 13.0527 7.35355 13.1464C7.44732 13.2402 7.5 13.3674 7.5 13.5ZM14.3538 8.35375L11.8538 10.8538C11.7838 10.9238 11.6947 10.9714 11.5977 10.9908C11.5006 11.0101 11.4 11.0002 11.3086 10.9623C11.2172 10.9244 11.1391 10.8603 11.0841 10.778C11.0292 10.6957 10.9999 10.5989 11 10.5V8.5H7C6.86739 8.5 6.74022 8.44732 6.64645 8.35355C6.55268 8.25979 6.5 8.13261 6.5 8C6.5 7.86739 6.55268 7.74021 6.64645 7.64645C6.74022 7.55268 6.86739 7.5 7 7.5H11V5.5C10.9999 5.40105 11.0292 5.30431 11.0841 5.22201C11.1391 5.13971 11.2172 5.07556 11.3086 5.03769C11.4 4.99981 11.5006 4.98991 11.5977 5.00924C11.6947 5.02856 11.7838 5.07624 11.8538 5.14625L14.3538 7.64625C14.4002 7.69269 14.4371 7.74783 14.4623 7.80853C14.4874 7.86923 14.5004 7.93429 14.5004 8C14.5004 8.06571 14.4874 8.13077 14.4623 8.19147C14.4371 8.25217 14.4002 8.30731 14.3538 8.35375ZM13.2913 8L12 6.70687V9.29313L13.2913 8Z" fill="currentColor"/>
<path opacity="0.2" d="M14 8L11.5 10.5V5.5L14 8Z" fill="currentColor"/>
</svg>