<svg width="18" height="18" viewBox="0 0 18 18" fill="none" xmlns="http://www.w3.org/2000/svg">
<path opacity="0.2" d="M14.625 7.3125V15.1875H3.375V7.3125H14.625Z" fill="currentColor"/>
<path d="M15.1875 7.87495V14.625C15.1875 14.9233 15.069 15.2095 14.858 15.4204C14.647 15.6314 14.3609 15.75 14.0625 15.75H3.9375C3.63913 15.75 3.35298 15.6314 3.142 15.4204C2.93103 15.2095 2.8125 14.9233 2.8125 14.625V7.87495C2.8125 7.57659 2.93103 7.29044 3.142 7.07946C3.35298 6.86848 3.63913 6.74995 3.9375 6.74995H5.625C5.77418 6.74995 5.91726 6.80922 6.02275 6.91471C6.12824 7.0202 6.1875 7.16327 6.1875 7.31245C6.1875 7.46164 6.12824 7.60471 6.02275 7.7102C5.91726 7.81569 5.77418 7.87495 5.625 7.87495H3.9375V14.625H14.0625V7.87495H12.375C12.2258 7.87495 12.0827 7.81569 11.9773 7.7102C11.8718 7.60471 11.8125 7.46164 11.8125 7.31245C11.8125 7.16327 11.8718 7.0202 11.9773 6.91471C12.0827 6.80922 12.2258 6.74995 12.375 6.74995H14.0625C14.3609 6.74995 14.647 6.86848 14.858 7.07946C15.069 7.29044 15.1875 7.57659 15.1875 7.87495ZM6.58547 4.89792L8.4375 3.04519V9.56245C8.4375 9.71164 8.49676 9.85471 8.60225 9.9602C8.70774 10.0657 8.85082 10.125 9 10.125C9.14918 10.125 9.29226 10.0657 9.39775 9.9602C9.50324 9.85471 9.5625 9.71164 9.5625 9.56245V3.04519L11.4145 4.89792C11.5201 5.00347 11.6632 5.06277 11.8125 5.06277C11.9618 5.06277 12.1049 5.00347 12.2105 4.89792C12.316 4.79238 12.3753 4.64922 12.3753 4.49995C12.3753 4.35069 12.316 4.20753 12.2105 4.10199L9.39797 1.28949C9.34573 1.23719 9.28369 1.1957 9.2154 1.16739C9.14712 1.13908 9.07392 1.12451 9 1.12451C8.92608 1.12451 8.85288 1.13908 8.7846 1.16739C8.71631 1.1957 8.65427 1.23719 8.60203 1.28949L5.78953 4.10199C5.68398 4.20753 5.62469 4.35069 5.62469 4.49995C5.62469 4.64922 5.68398 4.79237 5.78953 4.89792C5.89508 5.00347 6.03823 5.06277 6.1875 5.06277C6.33677 5.06277 6.47992 5.00347 6.58547 4.89792Z" fill="currentColor"/>
</svg>