<svg width="36" height="36" viewBox="0 0 36 36" fill="none" xmlns="http://www.w3.org/2000/svg">
<path opacity="0.2" d="M32.3578 15.2944L27.8789 12.7434C27.7889 12.5803 27.6946 12.4214 27.5976 12.2639L27.5807 7.20141C26.1652 6.00681 24.5368 5.09029 22.7812 4.5L18.2812 7.01578C18.0928 7.01578 17.9029 7.01578 17.7187 7.01578L13.2187 4.5C11.4636 5.09221 9.83614 6.01066 8.42198 7.20703L8.39948 12.2695C8.30104 12.427 8.20682 12.5873 8.11823 12.7491L3.64073 15.2944C3.28773 17.0799 3.28773 18.9173 3.64073 20.7028L8.11964 23.2537C8.20964 23.4169 8.30386 23.5758 8.40089 23.7333L8.41776 28.7958C9.83346 29.9915 11.4623 30.909 13.2187 31.5L17.7187 28.987C17.9071 28.987 18.097 28.987 18.2812 28.987L22.7812 31.5C24.5348 30.9073 26.1608 29.9889 27.5737 28.793L27.5962 23.7305C27.6946 23.573 27.7889 23.4127 27.8774 23.2509L32.3549 20.7056C32.7093 18.9194 32.7102 17.081 32.3578 15.2944ZM17.9999 23.625C16.8874 23.625 15.7999 23.2951 14.8749 22.677C13.9498 22.0589 13.2289 21.1804 12.8031 20.1526C12.3774 19.1248 12.266 17.9938 12.483 16.9026C12.7001 15.8115 13.2358 14.8092 14.0225 14.0225C14.8091 13.2359 15.8114 12.7001 16.9026 12.4831C17.9937 12.266 19.1247 12.3774 20.1525 12.8032C21.1804 13.2289 22.0589 13.9499 22.677 14.8749C23.295 15.7999 23.6249 16.8875 23.6249 18C23.6249 19.4918 23.0323 20.9226 21.9774 21.9775C20.9225 23.0324 19.4918 23.625 17.9999 23.625Z" fill="currentColor"/>
<path d="M18 11.25C16.665 11.25 15.36 11.6459 14.2499 12.3876C13.1399 13.1293 12.2747 14.1835 11.7638 15.4169C11.2529 16.6503 11.1193 18.0075 11.3797 19.3169C11.6402 20.6262 12.283 21.829 13.2271 22.773C14.1711 23.717 15.3738 24.3599 16.6832 24.6203C17.9925 24.8808 19.3497 24.7471 20.5831 24.2362C21.8165 23.7253 22.8707 22.8601 23.6124 21.7501C24.3541 20.6401 24.75 19.335 24.75 18C24.7482 16.2104 24.0364 14.4946 22.7709 13.2291C21.5055 11.9636 19.7897 11.2519 18 11.25ZM18 22.5C17.11 22.5 16.24 22.2361 15.5 21.7416C14.7599 21.2472 14.1832 20.5443 13.8426 19.7221C13.502 18.8998 13.4129 17.995 13.5865 17.1221C13.7601 16.2492 14.1887 15.4474 14.818 14.818C15.4474 14.1887 16.2492 13.7601 17.1221 13.5865C17.995 13.4128 18.8998 13.502 19.7221 13.8425C20.5444 14.1831 21.2472 14.7599 21.7416 15.4999C22.2361 16.24 22.5 17.11 22.5 18C22.5 19.1935 22.0259 20.3381 21.182 21.182C20.3381 22.0259 19.1935 22.5 18 22.5ZM33.4603 15.0764C33.429 14.918 33.3639 14.7682 33.2695 14.6371C33.1751 14.5061 33.0536 14.3969 32.9133 14.317L28.7185 11.9264L28.7016 7.1986C28.7011 7.03577 28.6652 6.875 28.5965 6.72738C28.5278 6.57977 28.4279 6.44882 28.3036 6.3436C26.782 5.05645 25.0296 4.07007 23.1399 3.43688C22.991 3.38651 22.8333 3.36787 22.6769 3.38216C22.5204 3.39645 22.3687 3.44335 22.2314 3.51985L18 5.88516L13.7644 3.51563C13.6271 3.4387 13.4752 3.39144 13.3184 3.37691C13.1617 3.36237 13.0037 3.38089 12.8546 3.43125C10.9659 4.06851 9.21552 5.05871 7.69643 6.34922C7.57235 6.45429 7.47253 6.58501 7.40382 6.73237C7.33512 6.87973 7.29917 7.04023 7.29846 7.20282L7.27737 11.9348L3.08252 14.3255C2.94218 14.4054 2.82069 14.5145 2.72629 14.6456C2.6319 14.7766 2.56683 14.9264 2.53549 15.0848C2.15158 17.0141 2.15158 19 2.53549 20.9292C2.56683 21.0876 2.6319 21.2375 2.72629 21.3685C2.82069 21.4995 2.94218 21.6087 3.08252 21.6886L7.27737 24.0792L7.29424 28.8084C7.29475 28.9713 7.3306 29.132 7.39931 29.2797C7.46802 29.4273 7.56795 29.5582 7.69221 29.6634C9.21387 30.9506 10.9662 31.937 12.856 32.5702C13.0048 32.6205 13.1625 32.6392 13.319 32.6249C13.4754 32.6106 13.6272 32.5637 13.7644 32.4872L18 30.1148L22.2356 32.4844C22.4033 32.5778 22.5922 32.6262 22.7841 32.625C22.907 32.625 23.029 32.605 23.1455 32.5659C25.0337 31.929 26.7839 30.9398 28.3036 29.6508C28.4277 29.5457 28.5275 29.415 28.5962 29.2676C28.6649 29.1203 28.7009 28.9598 28.7016 28.7972L28.7227 24.0652L32.9175 21.6745C33.0579 21.5946 33.1794 21.4855 33.2738 21.3544C33.3681 21.2234 33.4332 21.0736 33.4646 20.9152C33.8463 18.9875 33.8449 17.0035 33.4603 15.0764ZM31.351 19.9856L27.3333 22.2708C27.1573 22.3709 27.0115 22.5166 26.9114 22.6927C26.8299 22.8333 26.7441 22.9823 26.6569 23.123C26.5453 23.3003 26.4858 23.5055 26.4853 23.715L26.4642 28.2502C25.3843 29.0982 24.1813 29.7763 22.8966 30.2611L18.8438 28.0027C18.6755 27.9096 18.4862 27.8611 18.2939 27.862H18.2672C18.0971 27.862 17.9255 27.862 17.7553 27.862C17.5541 27.8571 17.3552 27.9057 17.1788 28.0027L13.1231 30.2667C11.8357 29.7857 10.6293 29.1109 9.54565 28.2656L9.53018 23.7375C9.52949 23.5276 9.47006 23.322 9.35862 23.1441C9.27143 23.0034 9.18565 22.8628 9.10549 22.7138C9.0061 22.535 8.86037 22.3864 8.68362 22.2834L4.66174 19.9927C4.45362 18.6761 4.45362 17.3351 4.66174 16.0186L8.67237 13.7292C8.8484 13.6291 8.99415 13.4834 9.09424 13.3073C9.1758 13.1667 9.26159 13.0177 9.34877 12.877C9.46038 12.6997 9.51983 12.4945 9.52034 12.285L9.54143 7.74985C10.6213 6.9018 11.8244 6.22367 13.1091 5.73891L17.1563 7.99735C17.3324 8.09498 17.5315 8.14355 17.7328 8.13797C17.903 8.13797 18.0746 8.13797 18.2447 8.13797C18.446 8.14355 18.6451 8.09498 18.8213 7.99735L22.8769 5.73328C24.1643 6.21433 25.3707 6.88914 26.4544 7.73438L26.4699 12.2625C26.4706 12.4724 26.53 12.678 26.6414 12.8559C26.7286 12.9966 26.8144 13.1372 26.8946 13.2863C26.9939 13.465 27.1397 13.6137 27.3164 13.7166L31.3383 16.0073C31.5492 17.3249 31.5516 18.6674 31.3453 19.9856H31.351Z" fill="currentColor"/>
</svg>